<svg xmlns="http://www.w3.org/2000/svg" width="14" height="14"><path fill="#ef2929" d="M13.87 11.25L9.63 7l4.24-4.25c.05-.04.08-.1.1-.15.06-.16.03-.34-.1-.46l-2-2c-.13-.14-.3-.17-.47-.1-.05 0-.1.04-.15.1L7 4.37 2.75.13C2.7.08 2.65.05 2.6.03c-.16-.06-.34-.03-.46.1l-2 2c-.14.13-.17.3-.1.47 0 .05.04.1.1.15L4.37 7 .13 11.25c-.05.04-.08.1-.1.15-.06.16-.03.34.1.47l2 2c.13.13.3.16.47.1.05-.02.1-.05.15-.1L7 9.63l4.25 4.24c.04.05.1.08.15.1.16.06.34.03.47-.1l2-2c.13-.13.16-.3.1-.47-.02-.05-.05-.1-.1-.15z"/></svg>