<svg xmlns="http://www.w3.org/2000/svg" width="14" height="14"><path fill="none" stroke="#9e9e9e" stroke-width=".854" d="M7 2.5v8.4"/><path fill="#fcaf3e" fill-rule="evenodd" d="M8.65 10.43l-.8-.8 4.2-4.2.8.8z"/><path fill="#ce5c00" fill-rule="evenodd" d="M7.06 8.84l4.2-4.2.8.8-4.2 4.2-.8-.8"/><path fill="#ef2929" d="M12.75 3.6c.62 0 1.13.52 1.13 1.14 0 .26-.08.5-.22.7l-.46.44-1.6-1.6.46-.45c.2-.14.43-.22.7-.22z"/><path fill="#204a87" fill-rule="evenodd" d="M7.06 8.84L6.6 10.9l2.05-.47z"/><path fill="#9e9e9e" fill-rule="evenodd" d="M11.6 4.3l1.6 1.58-.34.34-1.6-1.6z"/><path fill="#8f5902" fill-rule="evenodd" d="M7.06 8.84l1.6 1.6-.74.16L6.9 9.57z"/><path fill="none" stroke="#9e9e9e" stroke-width=".779" d="M5 2.5h2.43"/><path fill="#9e9e9e" stroke="#9e9e9e" stroke-width=".627" stroke-dashoffset="1.2" d="M.3.3h4.4v4.4H.3z"/><path fill="none" stroke="#9e9e9e" stroke-dashoffset="1.5" d="M7 10.9V14" stroke-dasharray="1,1"/><path fill="none" stroke="#9e9e9e" stroke-dashoffset="1.5" d="M7.43 2.6h3.1" stroke-dasharray="1, 1"/></svg>