<svg xmlns="http://www.w3.org/2000/svg" width="14" height="14"><path fill="#9e9e9e" d="M12.35 2.73L10.4.77C9.97.35 9.13 0 8.53 0H1.97c-.6 0-1.1.5-1.1 1.1v11.8c0 .6.5 1.1 1.1 1.1h10.06c.6 0 1.1-.5 1.1-1.1V4.6c0-.6-.35-1.45-.78-1.87zm-.62.62c.05.04.1.1.13.15H9.63V1.27c.05.04.1.08.15.12zm.52 9.56c0 .12-.1.22-.22.22H1.97c-.12 0-.22-.1-.22-.2V1.08c0-.12.1-.23.22-.23h6.56c.07 0 .14 0 .22.03v3.47h3.48c0 .08.02.16.02.22z"/><path fill="#ef2929" d="M5.95 6.7L4.9 5.63 1.75 8.8l3.15 3.14 1.05-1.05-2.1-2.1zm2.1 4.2l1.05 1.04 3.15-3.15L9.1 5.63 8.05 6.7l2.1 2.1z"/></svg>